<svg id="Layer_1" enable-background="new 0 0 512 512" height="512" viewBox="0 0 512 512" width="512" xmlns="http://www.w3.org/2000/svg"><g><g><path clip-rule="evenodd" d="m362.966 142.531v62.859l15.622 14.375 17.352-11.313v-65.921c0-4.196-3.431-7.627-7.627-7.627h-17.72c-4.197 0-7.627 3.431-7.627 7.627z" fill="#365e7d" fill-rule="evenodd"/></g><g><path clip-rule="evenodd" d="m395.939 208.452v-65.921c0-4.196-3.431-7.627-7.627-7.627h-13.127c4.196 0 7.627 3.431 7.627 7.627v64.701z" fill="#2b4d66" fill-rule="evenodd"/></g><g><path clip-rule="evenodd" d="m177.372 270.659c25.715 25.716 37.737 59.91 36.064 93.565l79.443 17.295 74.254-17.295 125.232-25.688v-61.242l-84.688-67.735-11.738-1.106-32.974-3.062-49.39-4.593-43.379 69.862h-92.824z" fill="#ff8086" fill-rule="evenodd"/></g><g><path clip-rule="evenodd" d="m206.717 398.842h172.353c-2.126-6.663-3.261-15.084-3.261-21.095 0-5.982.454-9.158 1.333-13.524h-163.706c-.567 11.738-2.835 23.392-6.719 34.619z" fill="#f9f6f6" fill-rule="evenodd"/></g><g><path clip-rule="evenodd" d="m369.062 398.842c8.931 27.984 35.128 48.257 66.089 48.257 38.304 0 69.349-31.047 69.349-69.351 0-14.545-4.48-28.069-12.135-39.212-12.503-18.203-33.456-30.139-57.215-30.139-33.654 0-61.723 24.015-68.017 55.827-.879 4.366-1.333 8.903-1.333 13.524.001 7.343 1.163 14.431 3.262 21.094z" fill="#365e7d" fill-rule="evenodd"/></g><g><path clip-rule="evenodd" d="m441.53 277.293h50.835c0-36.292-29.855-62.632-65.976-65.977l-18.712-1.758v33.853c0 18.628 15.225 33.882 33.853 33.882z" fill="#9dc6fb" fill-rule="evenodd"/></g><g><path clip-rule="evenodd" d="m270.197 270.659h24.184c10.547 0 19.194-8.619 19.194-19.195v-50.667h-25.574c-6.237 0-11.766 3.261-14.942 8.166-1.815 2.779-2.864 6.096-2.864 9.64v52.056z" fill="#f9f6f6" fill-rule="evenodd"/></g><g><path clip-rule="evenodd" d="m145.107 252.966c15.395 6.011 29.827 15.254 42.273 27.701v-118.742c0-11.625-9.498-21.151-21.151-21.151-11.624 0-21.122 9.527-21.122 21.151l-9.016 40.006z" fill="#365e7d" fill-rule="evenodd"/></g><g><path clip-rule="evenodd" d="m60.108 251.038c27.558-9.385 57.782-8.733 85 1.928v-91.041-76.355h-85z" fill="#ff8086" fill-rule="evenodd"/></g><g><path clip-rule="evenodd" d="m145.107 95.579h135.07 13.921c8.421 0 15.339-6.918 15.339-15.339 0-8.449-6.918-15.339-15.339-15.339h-247.911c-8.449 0-15.339 6.89-15.339 15.339 0 8.421 6.89 15.339 15.339 15.339h13.921z" fill="#ffe07d" fill-rule="evenodd"/></g><g><path clip-rule="evenodd" d="m492.365 277.293c0-36.292-29.855-62.632-65.976-65.977l-8.222-.766c23.731 10.491 40.6 32.152 40.6 59.399v7.343h33.598z" fill="#80b4fb" fill-rule="evenodd"/></g><g><path clip-rule="evenodd" d="m492.365 277.293h-33.597v35.243c13.722 4.962 25.46 14.148 33.597 26z" fill="#e5646e" fill-rule="evenodd"/></g><g><path clip-rule="evenodd" d="m294.098 64.901h-44.116c8.421 0 15.339 6.89 15.339 15.339 0 8.421-6.918 15.339-15.339 15.339h30.195 13.921c8.421 0 15.339-6.918 15.339-15.339 0-8.449-6.918-15.339-15.339-15.339z" fill="#ffd064" fill-rule="evenodd"/></g><g><path clip-rule="evenodd" d="m179.13 398.842h37.595c3.884-11.228 6.124-22.881 6.719-34.619 1.644-33.655-10.349-67.849-36.064-93.565-12.447-12.447-26.878-21.662-42.273-27.701-27.218-10.661-57.442-11.284-85-1.928-17.38 5.897-33.711 15.793-47.547 29.629-6.748 6.748-6.748 17.749 0 24.469 6.719 6.748 17.72 6.748 24.468 0 60.193-60.59 161.665 40.403 142.102 103.715z" fill="#ffe07d" fill-rule="evenodd"/></g><g><path clip-rule="evenodd" d="m37.029 421.043c16.104 16.104 38.361 26.056 62.942 26.056s46.838-9.952 62.942-26.056c6.493-6.493 11.965-13.978 16.217-22.2 6.294-12.22 9.867-26.085 9.867-40.772 0-24.582-9.98-46.839-26.084-62.944-16.104-16.104-38.361-26.056-62.942-26.056s-46.838 9.952-62.942 26.056c-16.756 16.757-26.084 39.269-26.084 62.944 0 24.582 9.98 46.839 26.084 62.972z" fill="#365e7d" fill-rule="evenodd"/></g><g><path clip-rule="evenodd" d="m99.971 394.419c20.045 0 36.319-16.275 36.319-36.349 0-20.046-16.274-36.32-36.319-36.32-20.073 0-36.319 16.275-36.319 36.32 0 20.075 16.245 36.349 36.319 36.349z" fill="#f9f6f6" fill-rule="evenodd"/></g><g><path clip-rule="evenodd" d="m187.381 270.659c-12.447-12.447-26.878-21.662-42.273-27.701-17.437-6.833-36.121-9.555-54.521-8.137 12.163.907 24.213 3.629 35.724 8.137 15.395 6.039 29.827 15.254 42.273 27.701 25.715 25.716 37.737 59.91 36.064 93.565-.567 11.738-2.807 23.391-6.719 34.619h18.798c3.884-11.228 6.124-22.881 6.719-34.619 1.643-33.656-10.35-67.849-36.065-93.565z" fill="#ffd064" fill-rule="evenodd"/></g><g><path clip-rule="evenodd" d="m136.29 358.071c0-20.046-16.274-36.32-36.319-36.32-2.211 0-4.366.198-6.464.595 14.601 4.707 25.148 18.401 25.148 34.562 0 17.862-12.872 32.691-29.855 35.753 3.516 1.134 7.258 1.758 11.171 1.758 20.045 0 36.319-16.274 36.319-36.348z" fill="#dddaec" fill-rule="evenodd"/></g><g><path clip-rule="evenodd" d="m187.381 161.925c0-11.625-9.498-21.151-21.151-21.151-3.09 0-6.067.68-8.732 1.9 8.676 2.637 14.998 10.746 14.998 20.216v95.068c5.217 3.771 10.207 8.024 14.885 12.702z" fill="#2b4d66" fill-rule="evenodd"/></g><g><path clip-rule="evenodd" d="m145.107 95.579h-85v19.223h52.281c15.452 0 13.127 12.39 13.127 27.644v19.479 75.192c5.982 1.248 11.908 2.949 17.692 5.104.624.255 1.248.482 1.9.737v-81.033-47.123z" fill="#e5646e" fill-rule="evenodd"/></g><g><path clip-rule="evenodd" d="m296.99 227.534v26.85c0 6.833-3.629 12.872-9.073 16.275h6.464c10.547 0 19.194-8.619 19.194-19.195v-50.667h-16.585z" fill="#dddaec" fill-rule="evenodd"/></g><g><path clip-rule="evenodd" d="m419.982 392.378c3.828 3.969 9.214 6.464 15.168 6.464s11.341-2.495 15.168-6.464c3.657-3.771 5.897-8.931 5.897-14.63 0-11.625-9.413-21.066-21.066-21.066-11.624 0-21.066 9.442-21.066 21.066.002 5.699 2.242 10.859 5.899 14.63z" fill="#f9f6f6" fill-rule="evenodd"/></g><g><path clip-rule="evenodd" d="m456.216 377.748c0-11.625-9.413-21.066-21.066-21.066-2.467 0-4.848.425-7.06 1.219 8.449 2.722 14.573 10.689 14.573 20.046 0 5.586-2.155 10.661-5.699 14.432-.057.085-.142.142-.198.198-2.24 2.325-4.99 4.14-8.08 5.245 2.041.652 4.196 1.021 6.464 1.021 5.954 0 11.341-2.495 15.168-6.464 3.658-3.772 5.898-8.932 5.898-14.631z" fill="#dddaec" fill-rule="evenodd"/></g><g><path d="m56.151 358.071c0 24.178 19.657 43.849 43.819 43.849s43.819-19.67 43.819-43.849c0-24.163-19.657-43.82-43.819-43.82s-43.819 19.657-43.819 43.82zm43.82-28.821c15.891 0 28.819 12.929 28.819 28.82 0 15.907-12.928 28.849-28.819 28.849s-28.819-12.941-28.819-28.849c-.001-15.891 12.928-28.82 28.819-28.82z"/><path d="m262.344 295.169c-4.143 0-7.5 3.358-7.5 7.5v29.629c0 4.142 3.357 7.5 7.5 7.5s7.5-3.358 7.5-7.5v-29.629c0-4.142-3.358-7.5-7.5-7.5z"/><path d="m302.349 295.169c-4.143 0-7.5 3.358-7.5 7.5v29.629c0 4.142 3.357 7.5 7.5 7.5s7.5-3.358 7.5-7.5v-29.629c0-4.142-3.358-7.5-7.5-7.5z"/><path d="m342.354 295.169c-4.143 0-7.5 3.358-7.5 7.5v29.629c0 4.142 3.357 7.5 7.5 7.5s7.5-3.358 7.5-7.5v-29.629c0-4.142-3.358-7.5-7.5-7.5z"/><path d="m490.171 431.325c13.494-13.855 21.829-32.756 21.829-53.577 0-15.224-4.468-29.416-12.135-41.368v-59.087c0-19.219-7.721-37.24-21.739-50.745-13.311-12.823-31.438-20.885-51.04-22.7l-23.646-2.205v-59.112c0-7.602-5.643-13.895-12.957-14.953v-25.28c0-.932 2.26-1.999 4.381-2.602l12.334-3.544c3.98-1.144 6.281-5.299 5.137-9.28-1.143-3.981-5.3-6.282-9.279-5.137l-12.313 3.538c-13.771 3.914-15.259 13.209-15.259 17.024v25.106h-4.89c-8.341 0-15.127 6.786-15.127 15.127v54.639l-36.245-3.38-28.794-90.711h3.672c12.593 0 22.838-10.246 22.838-22.839s-10.245-22.839-22.838-22.839h-117.69c-4.142 0-7.5 3.358-7.5 7.5s3.358 7.5 7.5 7.5h117.69c4.322 0 7.838 3.517 7.838 7.839 0 4.25-3.589 7.839-7.838 7.839h-13.921-220.072-13.92c-4.322 0-7.838-3.517-7.838-7.839s3.516-7.839 7.838-7.839h94.385c4.142 0 7.5-3.358 7.5-7.5s-3.358-7.5-7.5-7.5h-94.385c-12.593 0-22.838 10.246-22.838 22.839 0 12.594 10.245 22.839 22.838 22.839h6.421v132.642c-16.81 6.502-32.228 16.504-45.35 29.634-4.687 4.688-7.265 10.929-7.258 17.575.007 6.632 2.588 12.851 7.247 17.49 3.086 3.1 6.858 5.272 10.979 6.392-9.358 14.862-14.781 32.438-14.781 51.26 0 26.288 10.567 50.15 27.67 67.575.189.242.388.478.611.7.223.223.46.423.702.612 17.422 17.086 41.271 27.641 67.543 27.641s50.121-10.555 67.543-27.641c.243-.189.479-.389.702-.612.222-.222.422-.458.611-.7 5.67-5.776 10.623-12.258 14.708-19.303h33.167c.008 0 .016.002.023.002.008 0 .017-.002.025-.002h57.36c4.143 0 7.5-3.358 7.5-7.5s-3.357-7.5-7.5-7.5h-47.291c1.685-6.455 2.867-13.014 3.557-19.619h128.184c-.155 1.99-.259 3.995-.259 6.024 0 4.641.437 9.178 1.229 13.595h-52.73c-4.143 0-7.5 3.358-7.5 7.5s3.357 7.5 7.5 7.5h57.04c3.799 9.441 9.413 17.959 16.42 25.118.178.224.366.441.573.648.206.205.422.392.644.569 13.862 13.549 32.804 21.922 53.673 21.922 20.822 0 39.723-8.336 53.577-21.831.269-.204.531-.421.776-.667.247-.246.464-.508.668-.777zm-12.123-21.284c-2.928-2.93-7.677-2.929-10.606 0s-2.929 7.678.001 10.606l5.786 5.786c-8.648 6.779-19.133 11.304-30.578 12.695v-8.19c0-4.142-3.357-7.5-7.5-7.5s-7.5 3.358-7.5 7.5v8.19c-11.442-1.39-21.924-5.913-30.57-12.688l5.785-5.8c2.926-2.933 2.92-7.681-.013-10.606-2.934-2.926-7.683-2.919-10.606.014l-5.773 5.788c-6.782-8.65-11.31-19.138-12.701-30.588h8.219c4.143 0 7.5-3.358 7.5-7.5s-3.357-7.5-7.5-7.5h-8.219c1.391-11.446 5.916-21.931 12.694-30.579l5.786 5.786c1.465 1.465 3.384 2.197 5.304 2.197 1.919 0 3.839-.732 5.303-2.197 2.93-2.929 2.93-7.677.001-10.606l-5.787-5.787c8.647-6.779 19.133-11.304 30.578-12.694v8.219c0 4.142 3.357 7.5 7.5 7.5s7.5-3.358 7.5-7.5v-8.219c11.449 1.391 21.937 5.918 30.586 12.701l-5.788 5.774c-2.933 2.925-2.938 7.674-.013 10.606 1.465 1.469 3.387 2.204 5.31 2.204 1.916 0 3.833-.73 5.297-2.19l5.8-5.785c6.775 8.646 11.297 19.129 12.688 30.571h-8.19c-4.143 0-7.5 3.358-7.5 7.5s3.357 7.5 7.5 7.5h8.19c-1.391 11.446-5.916 21.931-12.694 30.579zm6.298-140.248h-42.816c-14.531 0-26.353-11.835-26.353-26.382v-25.608l10.521.981c31.442 2.912 54.962 23.855 58.648 51.009zm-113.88-127.262c0-.055.072-.127.127-.127h17.72c.055 0 .127.072.127.127v57.713l-17.974-1.676zm-217.859-39.452h122.082l28.637 90.218h-15.324c-6.225 0-11.929 2.264-16.342 6.007l-20.439-12.61 5.908-9.573c2.176-3.524 1.082-8.146-2.443-10.321-3.525-2.176-8.146-1.082-10.321 2.443l-19.705 31.925c-2.175 3.524-1.082 8.146 2.443 10.321 1.228.758 2.588 1.119 3.932 1.119 2.515 0 4.972-1.265 6.39-3.562l5.918-9.588 20.248 12.492c-.579 2.121-.894 4.35-.894 6.653v44.556h-67.817v-101.234c0-15.798-12.853-28.651-28.65-28.651-4.928 0-9.57 1.253-13.623 3.458zm153.469 105.218v43.167c0 6.449-5.246 11.695-11.694 11.695h-16.685v-44.556c0-5.683 4.623-10.306 10.306-10.306zm-153.469-46.372c0-7.527 6.111-13.651 13.623-13.651 7.527 0 13.65 6.124 13.65 13.651v92.174c-8.462-6.532-17.612-11.955-27.273-16.191zm-85-58.846h70v129.328c-12.06-3.596-24.71-5.462-37.647-5.462-11.058 0-21.905 1.363-32.353 4.003zm32.364 194.246c4.142 0 7.5-3.358 7.5-7.5v-12.895c16.851 1.544 32.234 8.225 44.558 18.474l-9.106 9.107c-2.929 2.929-2.929 7.678 0 10.606 1.464 1.465 3.384 2.197 5.303 2.197s3.839-.732 5.303-2.197l9.109-9.11c10.262 12.323 16.953 27.709 18.499 44.563h-12.923c-4.142 0-7.5 3.358-7.5 7.5s3.358 7.5 7.5 7.5h12.923c-1.546 16.864-8.239 32.258-18.504 44.587l-9.105-9.105c-2.929-2.929-7.678-2.929-10.606 0-2.929 2.929-2.929 7.678 0 10.606l9.103 9.103c-12.324 10.251-27.706 16.933-44.555 18.478v-12.896c0-4.142-3.358-7.5-7.5-7.5s-7.5 3.358-7.5 7.5v12.896c-16.849-1.545-32.232-8.227-44.555-18.478l9.103-9.103c2.929-2.929 2.929-7.678 0-10.606-2.929-2.929-7.678-2.929-10.606 0l-9.105 9.105c-10.265-12.329-16.958-27.723-18.504-44.587h12.895c4.142 0 7.5-3.358 7.5-7.5s-3.358-7.5-7.5-7.5h-12.894c1.546-16.854 8.237-32.24 18.499-44.563l9.109 9.11c1.464 1.465 3.384 2.197 5.303 2.197s3.839-.732 5.303-2.197c2.929-2.929 2.929-7.677 0-10.606l-9.106-9.107c12.324-10.249 27.708-16.93 44.558-18.474v12.896c.001 4.141 3.359 7.499 7.501 7.499zm90.615 94.017c3.822-10.377 5.911-21.584 5.911-33.271 0-26.292-10.577-50.157-27.694-67.579-.182-.23-.374-.455-.587-.668-.214-.214-.44-.407-.671-.59-17.425-17.099-41.287-27.663-67.574-27.663s-50.15 10.564-67.575 27.664c-.231.182-.457.376-.671.589-1.848 1.847-4.312 2.864-6.941 2.864-.003 0-.007 0-.011 0-2.619-.003-5.069-1.016-6.92-2.875-1.837-1.83-2.85-4.28-2.853-6.899-.003-2.633 1.015-5.102 2.866-6.953 21.922-21.936 51.077-34.016 82.094-34.016 31.018 0 60.181 12.081 82.116 34.016s.001.001.001.001c23.539 23.54 35.413 54.968 33.986 86.96-.074.423-.12.856-.12 1.3 0 .187.014.371.028.554-.538 8.875-2.094 17.781-4.719 26.565h-20.666zm40.499-34.619c-.091-8.988-1.102-17.986-3.047-26.854-4.141-18.882-12.397-36.484-24.133-51.71h90.477c14.72 0 26.694-11.976 26.694-26.695v-42.435l79.101 7.376v27.007c0 22.818 18.551 41.382 41.353 41.382h43.336v34.419c-13.413-11.409-30.768-18.316-49.715-18.316-21.03 0-40.107 8.498-53.997 22.231-.109.097-.221.19-.326.295s-.198.217-.295.326c-8.973 9.075-15.693 20.371-19.284 32.975h-130.164z"/><path d="m435.15 349.182c-15.751 0-28.565 12.814-28.565 28.566 0 15.767 12.814 28.595 28.565 28.595s28.565-12.828 28.565-28.595c.001-15.752-12.814-28.566-28.565-28.566zm0 42.16c-7.48 0-13.565-6.099-13.565-13.595 0-7.48 6.085-13.566 13.565-13.566s13.565 6.085 13.565 13.566c.001 7.497-6.084 13.595-13.565 13.595z"/></g></g></svg>